<svg xmlns="http://www.w3.org/2000/svg" width="349pt" height="208" viewBox="0 0 349 156"><path d="m37.8 69.794-7.5-38.7H30l-7.5 38.7h15.3zM0 107.144 23.851.344h12.75l23.849 106.8h-15.3l-4.5-22.95H19.8l-4.5 22.95H0"/><path d="M59.505 107.144V.344h14.7l19.649 56.55h.3l19.5-56.55h14.851v106.8h-15.3v-64.95h-.301l-15.149 45.9h-7.651l-15-45.9h-.299v64.95h-15.3M146.49 14.744v36.3h7.35c3.098 0 5.499-.45 7.2-1.35 1.699-.9 2.948-2.149 3.75-3.75.8-1.5 1.275-3.35 1.425-5.55.15-2.198.225-4.65.225-7.35 0-2.499-.051-4.875-.15-7.125-.101-2.25-.551-4.223-1.35-5.925-.801-1.699-2.002-3-3.6-3.9-1.601-.9-3.9-1.35-6.9-1.35h-7.95zm-15.3 92.4V.344h22.951c4.199 0 7.898.551 11.099 1.65 3.199 1.101 6.099 3.051 8.7 5.85 2.599 2.801 4.4 6.075 5.4 9.825.999 3.75 1.5 8.826 1.5 15.225 0 4.8-.277 8.85-.824 12.15-.551 3.3-1.726 6.401-3.526 9.3-2.099 3.501-4.9 6.225-8.4 8.175-3.501 1.95-8.1 2.925-13.8 2.925h-7.8v41.7h-15.3M181.561 107.144V.344h15.299v91.5h30.3v15.3h-45.599M227.489.344h15.3v106.8h-15.3zM245.669 107.144V.344h45.6v14.4h-30.3v32.4h26.4v14.4h-26.4v45.6h-15.3"/><path d="M309.358 107.144v-45.15l-21-61.65h16.201l12.299 42.45h.3l12.3-42.45h16.2l-21 61.65v45.15h-15.3M333.521 91.844h15.299v15.3h-15.299zM102.8 139.5v.45h-1.32v-.54c0-2.219-.84-3.899-3.12-3.899-2.279 0-3.12 1.649-3.12 3.869 0 5.101 7.59 5.191 7.59 10.981 0 3.029-1.32 5.249-4.53 5.249s-4.529-2.22-4.529-5.249v-1.08h1.319v1.169c0 2.25.87 3.87 3.181 3.87 2.309 0 3.179-1.62 3.179-3.87 0-5.04-7.59-5.129-7.59-10.979 0-3.15 1.38-5.19 4.47-5.22 3.18 0 4.47 2.22 4.47 5.249M108.86 145.531c2.43 0 3.48-1.081 3.48-3.63v-2.46c0-2.281-.78-3.75-3.12-3.75h-2.97v9.84h2.61zm.36-11.1c3.24 0 4.5 2.04 4.5 5.1v2.28c0 3.329-1.53 4.979-4.86 4.979h-2.61v8.64h-1.38v-20.999h4.35M117.053 150.39c0 2.28.9 3.96 3.21 3.96 2.34 0 3.27-1.68 3.27-3.96v-10.919c0-2.28-.93-3.96-3.27-3.96-2.31 0-3.21 1.68-3.21 3.96v10.919zm-1.38-10.829c0-3.061 1.41-5.31 4.59-5.31 3.24 0 4.65 2.249 4.65 5.31V150.3c0 3.06-1.41 5.31-4.65 5.31-3.18 0-4.59-2.25-4.59-5.31v-10.739M130.643 144.781c2.46 0 3.9-.691 3.9-3.51v-1.981c0-2.25-.87-3.599-3.15-3.599h-2.97v9.09h2.22zm.78-10.35c3.21 0 4.5 1.769 4.5 4.739V141c0 2.46-.96 3.87-3.03 4.351 2.16.479 3.03 2.01 3.03 4.289v3.27c0 .87.06 1.83.51 2.52h-1.44c-.36-.63-.45-1.38-.45-2.52v-3.299c0-2.79-1.53-3.571-3.93-3.571h-2.19v9.39h-1.38v-20.999h4.38M141.778 155.43v-19.739h-4.289v-1.26h9.929v1.26h-4.259v19.739h-1.381M157.735 139.5v.45h-1.32v-.54c0-2.219-.84-3.899-3.12-3.899-2.279 0-3.12 1.649-3.12 3.869 0 5.101 7.591 5.191 7.591 10.981 0 3.029-1.321 5.249-4.531 5.249s-4.529-2.22-4.529-5.249v-1.08h1.319v1.169c0 2.25.871 3.87 3.18 3.87 2.311 0 3.18-1.62 3.18-3.87 0-5.04-7.59-5.129-7.59-10.979 0-3.15 1.38-5.19 4.471-5.22 3.179 0 4.469 2.22 4.469 5.249"/><clipPath id="a"><path transform="matrix(1 0 0 -1 0 156)" d="M0 155.656h348.82V.06H0z"/></clipPath><g clip-path="url(#a)"><path d="M171.746 144.151v1.259h-5.729v8.76h6.899v1.26h-8.279v-20.999h8.279v1.26h-6.899v8.46h5.729M175.904 139.471v10.919c0 2.28.93 3.96 3.24 3.96s3.24-1.68 3.24-3.96v-10.919c0-2.28-.93-3.96-3.24-3.96s-3.24 1.68-3.24 3.96zm7.86.09V150.3c0 1.44-.3 2.7-.991 3.63.361.63.901.84 1.651.84h.33V156h-.36c-1.17 0-1.98-.39-2.491-1.23-.689.51-1.59.84-2.759.84-3.21 0-4.62-2.25-4.62-5.31v-10.739c0-3.061 1.41-5.31 4.62-5.31s4.62 2.249 4.62 5.31"/></g><path d="M187.576 150.361c0 2.249.84 3.989 3.151 3.989 2.309 0 3.149-1.74 3.149-3.989v-15.93h1.29V150.3c0 3-1.26 5.31-4.47 5.31s-4.5-2.31-4.5-5.31v-15.869h1.38v15.93M197.362 134.431h1.38v20.999h-1.38zM204.918 145.531c2.431 0 3.48-1.081 3.48-3.63v-2.46c0-2.281-.78-3.75-3.12-3.75h-2.969v9.84h2.609zm.36-11.1c3.241 0 4.5 2.04 4.5 5.1v2.28c0 3.329-1.53 4.979-4.86 4.979h-2.609v8.64h-1.38v-20.999h4.349M218.823 155.4h-1.38l-4.44-18.57v18.6h-1.23v-20.999h1.98l4.41 18.569 4.38-18.569h1.979v20.999h-1.319v-18.659l-4.38 18.629M233.873 144.151v1.259h-5.729v8.76h6.899v1.26h-8.279v-20.999h8.279v1.26h-6.899v8.46h5.729M238.358 155.43h-1.259v-20.999h1.799l6.3 17.729v-17.729h1.26v20.999h-1.53l-6.57-18.72v18.72M252.542 155.43v-19.739h-4.29v-1.26h9.93v1.26h-4.26v19.739h-1.38"/></svg>