<svg xmlns="http://www.w3.org/2000/svg" version="1.1" id="Laag_1" x="0px" y="0px" viewBox="-199 394.3 109.60073 42.200002" xml:space="preserve" width="109.60073" height="42.200001" focusable="false">
    <title>BDO</title>
    <style type="text/css" id="style3">
     .st0{fill:none;}
     .st1{fill:#21409A;}
     .st2{fill:#ED1A3B;}
 </style>
    <g id="Minimum_area" transform="translate(-4,-5.0000122)"></g>
    <g id="Artwork" transform="translate(-4,-5.0000122)">
        <g id="g7">
            <path class="st0" d="m -180.6,431.4 0,0 0,0 z" id="path9" style="fill:none"></path>
            <path class="st1" d="m -150.3,431.4 0,0 0,0 z" id="path11" style="fill:#21409a"></path>
            <g id="g13">
                <path class="st1" d="m -174.2,416.8 3.8,0 c 6.3,0 9.5,1.4 9.5,5 0,3.3 -2.6,4.6 -6.6,4.6 -1.1,0 -4.7,0 -6.1,0 l -7,4.9 0,0 13.1,0 c 7.8,0 13.1,-2.8 13.1,-9.3 0,-5.7 -4.7,-7.9 -8.8,-7.9 2.9,0 6.3,-2.6 6.3,-6.9 0,-4.4 -4,-7.5 -8.6,-7.5 l -13.3,0 -2.9,0 1.1,2.6 0,26.8 6.4,-4.5 0,-7.8 z m 0,-12.2 6.7,0 c 1.8,0 4.2,0.4 4.2,3.6 0,3.1 -3.3,4.4 -5.8,4.4 l -5.1,0 c 0,0 0,-8 0,-8 z" id="path15" style="fill:#21409a"></path>
                <path class="st1" d="m -143.9,404.6 4.4,0 c 1.8,0 11,0.5 11,11 0,12 -11,11 -11,11 l -3.8,0 -7,4.9 0,0 12.6,0 c 7.8,0 15.8,-4.8 15.8,-15.9 0,-9.8 -7,-15.9 -15.8,-15.9 l -13.8,0 1.2,2.6 0,26.8 6.4,-4.5 c 0,0 0,-20 0,-20 z" id="path17" style="fill:#21409a"></path>
                <path class="st1" d="m -119,415.5 c 0,12.7 10.2,16.2 16.8,16.2 6.6,0 16.8,-3.6 16.8,-16.2 0.1,-12.6 -10.1,-16.2 -16.7,-16.2 -6.6,0 -16.9,3.6 -16.9,16.2 z m 6.7,0 c 0,-9 6.2,-11.5 10.2,-11.5 4,0 10.2,2.5 10.2,11.5 0,9 -6.2,11.5 -10.2,11.5 -4,0 -10.2,-2.5 -10.2,-11.5 z" id="path19" style="fill:#21409a"></path>
            </g>
            <g id="g21">
                <polygon class="st2" points="-188.8,399.7 -195,399.7 -195,439.2 -188.8,434.8 " id="polygon23" style="fill:#ed1a3b"></polygon>
                <polygon class="st2" points="-85.6,436.3 -187.6,436.3 -195,441.5 -85.6,441.5 " id="polygon25" style="fill:#ed1a3b"></polygon>
            </g>
        </g>
    </g>
</svg>