<svg id="visual" viewBox="0 0 900 200" width="900" height="200" xmlns="http://www.w3.org/2000/svg" xmlns:xlink="http://www.w3.org/1999/xlink" version="1.1">
    <rect x="0" y="0" width="900" height="200" fill="#FFFFFF"></rect>
    <path d="M0 87L21.5 91.2C43 95.3 86 103.7 128.8 106.7C171.7 109.7 214.3 107.3 257.2 103.5C300 99.7 343 94.3 385.8 94.2C428.7 94 471.3 99 514.2 98.8C557 98.7 600 93.3 642.8 90.2C685.7 87 728.3 86 771.2 85.5C814 85 857 85 878.5 85L900 85L900 201L878.5 201C857 201 814 201 771.2 201C728.3 201 685.7 201 642.8 201C600 201 557 201 514.2 201C471.3 201 428.7 201 385.8 201C343 201 300 201 257.2 201C214.3 201 171.7 201 128.8 201C86 201 43 201 21.5 201L0 201Z" fill="#d7b9a6"></path>
    <path d="M0 135L21.5 133C43 131 86 127 128.8 121.2C171.7 115.3 214.3 107.7 257.2 107.3C300 107 343 114 385.8 115.3C428.7 116.7 471.3 112.3 514.2 114.7C557 117 600 126 642.8 129.2C685.7 132.3 728.3 129.7 771.2 125.3C814 121 857 115 878.5 112L900 109L900 201L878.5 201C857 201 814 201 771.2 201C728.3 201 685.7 201 642.8 201C600 201 557 201 514.2 201C471.3 201 428.7 201 385.8 201C343 201 300 201 257.2 201C214.3 201 171.7 201 128.8 201C86 201 43 201 21.5 201L0 201Z" fill="#d8ac8f"></path>
    <path d="M0 132L21.5 135.5C43 139 86 146 128.8 145.5C171.7 145 214.3 137 257.2 135C300 133 343 137 385.8 141.3C428.7 145.7 471.3 150.3 514.2 152.8C557 155.3 600 155.7 642.8 156.3C685.7 157 728.3 158 771.2 155.3C814 152.7 857 146.3 878.5 143.2L900 140L900 201L878.5 201C857 201 814 201 771.2 201C728.3 201 685.7 201 642.8 201C600 201 557 201 514.2 201C471.3 201 428.7 201 385.8 201C343 201 300 201 257.2 201C214.3 201 171.7 201 128.8 201C86 201 43 201 21.5 201L0 201Z" fill="#d89f79"></path>
    <path d="M0 178L21.5 176.8C43 175.7 86 173.3 128.8 171.3C171.7 169.3 214.3 167.7 257.2 168.7C300 169.7 343 173.3 385.8 174.5C428.7 175.7 471.3 174.3 514.2 173C557 171.7 600 170.3 642.8 170C685.7 169.7 728.3 170.3 771.2 171.7C814 173 857 175 878.5 176L900 177L900 201L878.5 201C857 201 814 201 771.2 201C728.3 201 685.7 201 642.8 201C600 201 557 201 514.2 201C471.3 201 428.7 201 385.8 201C343 201 300 201 257.2 201C214.3 201 171.7 201 128.8 201C86 201 43 201 21.5 201L0 201Z" fill="#d79263"></path>
</svg>