<svg id="visual" viewBox="0 0 900 100" width="900" height="100" xmlns="http://www.w3.org/2000/svg" xmlns:xlink="http://www.w3.org/1999/xlink" version="1.1">
    <rect x="0" y="0" width="900" height="100" fill="#FFFFFF"></rect>
    <path d="M0 43L21.5 45.2C43 47.3 86 51.7 128.8 53.2C171.7 54.7 214.3 53.3 257.2 51.3C300 49.3 343 46.7 385.8 46.7C428.7 46.7 471.3 49.3 514.2 49.2C557 49 600 46 642.8 44.3C685.7 42.7 728.3 42.3 771.2 42.2C814 42 857 42 878.5 42L900 42L900 101L878.5 101C857 101 814 101 771.2 101C728.3 101 685.7 101 642.8 101C600 101 557 101 514.2 101C471.3 101 428.7 101 385.8 101C343 101 300 101 257.2 101C214.3 101 171.7 101 128.8 101C86 101 43 101 21.5 101L0 101Z" fill="#d7b9a6"></path>
    <path d="M0 67L21.5 66C43 65 86 63 128.8 60C171.7 57 214.3 53 257.2 52.8C300 52.7 343 56.3 385.8 57.2C428.7 58 471.3 56 514.2 57.2C557 58.3 600 62.7 642.8 64.2C685.7 65.7 728.3 64.3 771.2 62.2C814 60 857 57 878.5 55.5L900 54L900 101L878.5 101C857 101 814 101 771.2 101C728.3 101 685.7 101 642.8 101C600 101 557 101 514.2 101C471.3 101 428.7 101 385.8 101C343 101 300 101 257.2 101C214.3 101 171.7 101 128.8 101C86 101 43 101 21.5 101L0 101Z" fill="#d8ac8f"></path>
    <path d="M0 65L21.5 66.8C43 68.7 86 72.3 128.8 72.2C171.7 72 214.3 68 257.2 67C300 66 343 68 385.8 70.2C428.7 72.3 471.3 74.7 514.2 76C557 77.3 600 77.7 642.8 78C685.7 78.3 728.3 78.7 771.2 77.3C814 76 857 73 878.5 71.5L900 70L900 101L878.5 101C857 101 814 101 771.2 101C728.3 101 685.7 101 642.8 101C600 101 557 101 514.2 101C471.3 101 428.7 101 385.8 101C343 101 300 101 257.2 101C214.3 101 171.7 101 128.8 101C86 101 43 101 21.5 101L0 101Z" fill="#d89f79"></path>
    <path d="M0 89L21.5 88.3C43 87.7 86 86.3 128.8 85.3C171.7 84.3 214.3 83.7 257.2 84.2C300 84.7 343 86.3 385.8 86.8C428.7 87.3 471.3 86.7 514.2 86C557 85.3 600 84.7 642.8 84.5C685.7 84.3 728.3 84.7 771.2 85.3C814 86 857 87 878.5 87.5L900 88L900 101L878.5 101C857 101 814 101 771.2 101C728.3 101 685.7 101 642.8 101C600 101 557 101 514.2 101C471.3 101 428.7 101 385.8 101C343 101 300 101 257.2 101C214.3 101 171.7 101 128.8 101C86 101 43 101 21.5 101L0 101Z" fill="#d79263"></path>
</svg>