<svg id="visual" viewBox="0 0 900 600" width="900" height="600" xmlns="http://www.w3.org/2000/svg" xmlns:xlink="http://www.w3.org/1999/xlink" version="1.1"><rect x="0" y="0" width="900" height="600" fill="#FFFFFF"></rect><path d="M0 468L21.5 470C43 472 86 476 128.8 472.3C171.7 468.7 214.3 457.3 257.2 449.7C300 442 343 438 385.8 438.7C428.7 439.3 471.3 444.7 514.2 439.8C557 435 600 420 642.8 417.2C685.7 414.3 728.3 423.7 771.2 424.2C814 424.7 857 416.3 878.5 412.2L900 408L900 601L878.5 601C857 601 814 601 771.2 601C728.3 601 685.7 601 642.8 601C600 601 557 601 514.2 601C471.3 601 428.7 601 385.8 601C343 601 300 601 257.2 601C214.3 601 171.7 601 128.8 601C86 601 43 601 21.5 601L0 601Z" fill="#d7b9a6"></path><path d="M0 517L21.5 512.7C43 508.3 86 499.7 128.8 494.7C171.7 489.7 214.3 488.3 257.2 484.8C300 481.3 343 475.7 385.8 472.7C428.7 469.7 471.3 469.3 514.2 473C557 476.7 600 484.3 642.8 494.5C685.7 504.7 728.3 517.3 771.2 514.8C814 512.3 857 494.7 878.5 485.8L900 477L900 601L878.5 601C857 601 814 601 771.2 601C728.3 601 685.7 601 642.8 601C600 601 557 601 514.2 601C471.3 601 428.7 601 385.8 601C343 601 300 601 257.2 601C214.3 601 171.7 601 128.8 601C86 601 43 601 21.5 601L0 601Z" fill="#d8a684"></path><path d="M0 519L21.5 523.8C43 528.7 86 538.3 128.8 542.8C171.7 547.3 214.3 546.7 257.2 540.5C300 534.3 343 522.7 385.8 522.7C428.7 522.7 471.3 534.3 514.2 543.3C557 552.3 600 558.7 642.8 554.3C685.7 550 728.3 535 771.2 533.3C814 531.7 857 543.3 878.5 549.2L900 555L900 601L878.5 601C857 601 814 601 771.2 601C728.3 601 685.7 601 642.8 601C600 601 557 601 514.2 601C471.3 601 428.7 601 385.8 601C343 601 300 601 257.2 601C214.3 601 171.7 601 128.8 601C86 601 43 601 21.5 601L0 601Z" fill="#d79263"></path></svg>